<?xml version="1.0" encoding="UTF-8" standalone="no"?>
<!-- Created with Inkscape (http://www.inkscape.org/) -->

<svg
   xmlns:dc="http://purl.org/dc/elements/1.1/"
   xmlns:cc="http://creativecommons.org/ns#"
   xmlns:rdf="http://www.w3.org/1999/02/22-rdf-syntax-ns#"
   xmlns:svg="http://www.w3.org/2000/svg"
   xmlns="http://www.w3.org/2000/svg"
   xmlns:sodipodi="http://sodipodi.sourceforge.net/DTD/sodipodi-0.dtd"
   xmlns:inkscape="http://www.inkscape.org/namespaces/inkscape"
   version="1.1"
   id="svg10"
   xml:space="preserve"
   width="812.59869"
   height="1058.2679"
   viewBox="0 0 812.59869 1058.2679"
   sodipodi:docname="cntr0llz.svg"
   inkscape:export-filename="C:\Users\Mataya\Desktop\BlackKind2.png"
   inkscape:export-xdpi="137.91939"
   inkscape:export-ydpi="137.91939"
   inkscape:version="0.92.4 (5da689c313, 2019-01-14)"><metadata
     id="metadata16"><rdf:RDF><cc:Work
         rdf:about=""><dc:format>image/svg+xml</dc:format><dc:type
           rdf:resource="http://purl.org/dc/dcmitype/StillImage" /><dc:title /></cc:Work></rdf:RDF></metadata><defs
     id="defs14"><clipPath
       clipPathUnits="userSpaceOnUse"
       id="clipPath26"><path
         d="M 113,205 H 496.999 V 588.999 H 113 Z"
         id="path24"
         inkscape:connector-curvature="0" /></clipPath><clipPath
       clipPathUnits="userSpaceOnUse"
       id="clipPath40"><path
         d="M 0,793.701 H 609.449 V 0 H 0 Z"
         id="path38"
         inkscape:connector-curvature="0" /></clipPath></defs><sodipodi:namedview
     pagecolor="#ffffff"
     bordercolor="#666666"
     borderopacity="1"
     objecttolerance="10"
     gridtolerance="10"
     guidetolerance="10"
     inkscape:pageopacity="0"
     inkscape:pageshadow="2"
     inkscape:window-width="1366"
     inkscape:window-height="706"
     id="namedview12"
     showgrid="false"
     inkscape:zoom="0.50743293"
     inkscape:cx="406.29935"
     inkscape:cy="529.13397"
     inkscape:window-x="-8"
     inkscape:window-y="-8"
     inkscape:window-maximized="1"
     inkscape:current-layer="g18" /><g
     id="g18"
     inkscape:groupmode="layer"
     inkscape:label="cntr0llz"
     transform="matrix(1.3333333,0,0,-1.3333333,0,1058.268)"><g
       id="g34"
       style="fill:#000000"
       inkscape:export-filename="C:\Users\Mataya\Desktop\hola.png"
       inkscape:export-xdpi="137.91939"
       inkscape:export-ydpi="137.91939"><g
         id="g36"
         clip-path="url(#clipPath40)"
         style="fill:#000000"><g
           id="g42"
           transform="translate(339.5937,480.9131)"
           style="fill:#000000"><path
             d="m 0,0 c 0,0 24.856,6.062 29.678,-13.028 0.176,-0.699 0.233,-1.429 0.246,-2.15 0.066,-3.814 1.455,-17.552 17.663,-22.954 0,0 -10.5,-10.5 -25.051,0.311 -3.515,2.612 -5.973,6.38 -7.249,10.57 C 13.661,-21.914 9.677,-12.442 0,0"
             style="fill:#000000;fill-opacity:1;fill-rule:nonzero;stroke:none"
             id="path44"
             inkscape:connector-curvature="0" /></g><g
           id="g46"
           transform="translate(138.8477,497.6157)"
           style="fill:#000000"><path
             d="m 0,0 c 8.824,5.672 12.605,1.891 12.605,1.891 -26.787,-18.594 -15.757,-66.81 -15.757,-66.81 64.29,60.507 119.755,30.253 119.755,30.253 -69.962,-4.412 -98.955,-55.465 -98.955,-55.465 30.253,15.127 56.726,8.193 56.726,8.193 C 13.236,-99.585 4.412,-145.596 4.412,-145.596 h 35.296 c -12.606,-103.367 143.705,-217.449 143.705,-217.449 30.884,4.412 153.16,131.73 153.16,131.73 C 329.64,-300.647 185.935,-392.668 185.935,-392.668 97.694,-363.675 23.32,-241.4 23.32,-241.4 v -23.951 c -24.581,31.515 -22.06,76.265 -22.06,76.265 -11.975,9.455 -14.794,-38.448 -14.794,-38.448 -17.315,8.194 -19.871,77.409 -19.871,77.409 -8.194,17.53 -23.951,-30.767 -23.951,-30.767 -15.757,58.616 20.799,103.367 20.799,103.367 -6.933,4.412 -42.86,-39.709 -42.86,-39.709 -2.521,37.188 3.782,52.315 3.782,52.315 3.152,17.648 34.036,53.574 34.036,53.574 -11.976,5.042 -37.818,-26.254 -37.818,-26.254 C -51.684,54.641 52.944,86.191 52.944,86.191 5.042,38.763 0,0 0,0"
             style="fill:#000000;fill-opacity:1;fill-rule:nonzero;stroke:none"
             id="path48"
             inkscape:connector-curvature="0" /></g><g
           id="g50"
           transform="translate(52.4146,650.8242)"
           style="fill:#000000"><path
             d="m 0,0 c 0,0 262.2,98.325 519.356,-25.211 0,0 21.43,-84.459 -56.726,-262.2 0,0 39.293,181.729 21.43,233.206 0,0 -148.747,100.846 -484.06,54.205"
             style="fill:#000000;fill-opacity:1;fill-rule:nonzero;stroke:none"
             id="path52"
             inkscape:connector-curvature="0" /></g><g
           id="g54"
           transform="translate(162.168,371.5586)"
           style="fill:#000000"><path
             d="m 0,0 c 0,0 60.508,75.634 171.123,4.727 0,0 76.58,-53.89 111.561,-42.544 0,0 28.363,4.726 18.908,41.598 0,0 33.091,2.837 46.326,-15.127 0,0 -39.708,-62.398 -119.124,-51.998 0,0 -42.544,1.891 -89.816,34.035 0,0 -44.435,29.309 -80.361,5.673 0,0 -14.182,-14.181 -20.8,-55.78 0,0 -24.581,37.6 8.509,73.162 0,0 -19.854,17.018 -46.326,6.254"
             style="fill:#000000;fill-opacity:1;fill-rule:nonzero;stroke:none"
             id="path56"
             inkscape:connector-curvature="0" /></g><g
           id="g58"
           transform="translate(444.8516,402.7573)"
           style="fill:#000000"><path
             d="m 0,0 c -17.167,15.716 -48.81,57.655 -58.782,69.613 -1.728,2.072 -3.3,4.248 -4.763,6.514 -9.129,14.134 -42.612,58.029 -72.597,-4.589 0,0 -30.254,23.951 -59.562,23.005 0,0 19.681,-18.909 18.35,-23.636 0,0 -71.432,26.231 -124.238,-19.854 0,0 31.666,46.295 34.981,64.29 0.804,4.367 -1.891,14.023 -16.073,7.563 0,0 75.453,99.167 159.778,125.742 0,0 -11.345,-50.107 0,-62.871 0,0 20.8,27.89 50.108,25.999 0,0 -28.363,-41.598 -18.909,-74.689 0,0 44.882,-9.448 63.505,-61.399 2.386,-6.655 3.887,-13.586 4.932,-20.577"
             style="fill:#000000;fill-opacity:1;fill-rule:nonzero;stroke:none"
             id="path60"
             inkscape:connector-curvature="0" /></g><g
           id="g62"
           transform="translate(289.8013,608.8613)"
           style="fill:#000000"><path
             d="m 0,0 c 0,0 -29.309,-1.891 -53.89,-50.108 l 58.617,5.672 z"
             style="fill:#000000;fill-opacity:1;fill-rule:nonzero;stroke:none"
             id="path64"
             inkscape:connector-curvature="0" /></g></g></g></g></svg>