<?xml version="1.0" encoding="utf-8"?>
<!-- Generator: Adobe Illustrator 22.1.0, SVG Export Plug-In . SVG Version: 6.00 Build 0)  -->
<svg version="1.1" id="Capa_1" xmlns="http://www.w3.org/2000/svg" xmlns:xlink="http://www.w3.org/1999/xlink" x="0px" y="0px"
	 viewBox="0 0 992.1 841.9" style="enable-background:new 0 0 992.1 841.9;" xml:space="preserve">
<style type="text/css">
	.st0{fill:#FFFFFF;}
	.st1{fill:#FFFFFF;stroke:#FFFFFF;stroke-miterlimit:10;}
	.st2{fill:#FFFFFF;stroke:#FFFFFF;stroke-linecap:round;stroke-miterlimit:10;}
	.st3{fill:none;stroke:#FFFFFF;stroke-linecap:round;stroke-miterlimit:10;}
	.st4{fill:#FFFFFF;stroke:#FFFFFF;stroke-linecap:square;stroke-miterlimit:10;}
	.st5{fill:#FFFFFF;stroke:#1B4013;stroke-miterlimit:10;}
	.st6{fill:none;stroke:#FFFFFF;stroke-miterlimit:10;}
	.st7{fill:none;stroke:#FFFFFF;stroke-linecap:square;stroke-miterlimit:10;}
</style>
<rect x="-9.5" y="-18.2" width="1008.8" height="872.1"/>
<rect x="288.1" y="246.8" class="st0" width="113.6" height="22.1"/>
<rect x="331.4" y="263.6" class="st0" width="27.2" height="125.6"/>
<path class="st0" d="M173.1,388.8h-23.4v-142h14.8c4.8,0,8.7,3.9,8.7,8.7V388.8z"/>
<path class="st0" d="M270.3,388.8H253c-3.4,0-6.1-2.7-6.1-6.1V246.8h23.4V388.8z"/>
<polygon class="st0" points="168.8,247.9 255.2,355.9 247.9,386.3 168.8,284.6 "/>
<rect x="419.2" y="246.8" class="st0" width="27.6" height="142.5"/>
<path class="st0" d="M476.6,246.8"/>
<rect x="696" y="250.6" class="st0" width="5.5" height="138.4"/>
<rect x="701.5" y="384.3" class="st0" width="68.5" height="4.7"/>
<rect x="795.2" y="250.6" class="st0" width="5.5" height="138.4"/>
<rect x="800.7" y="384.3" class="st0" width="68.5" height="4.7"/>
<rect x="881.6" y="250.6" class="st0" width="99.8" height="4.5"/>
<polygon class="st0" points="974.6,255.1 881.6,384.3 881.6,389 971.4,389 971.4,384.3 887.3,384.3 981.3,255.1 "/>
<rect x="880.6" y="384.4" class="st0" width="99.8" height="4.5"/>
<path class="st0" d="M129.4,263.6c0,0-12.7-14.3-33-16.6c-2-0.2-4-0.5-6-0.8c-7.7-1.4-30.5-3.7-49.9,11.6c0,0-24.7,12.1-28.9,54.4
	c0,0-4.2,40.4,23.1,62.6c0,0,16.4,20.5,61.6,14.4c0,0,17.3-0.6,35.3-20.5l-10.9-11.9c0,0-4.2-2.9-8,1c0,0-18,18.3-48.1,7.1
	c0,0-23.7-9.9-26-41.4c0,0-4.2-37.9,22.8-50.7c0,0,17-10.9,39.5-0.6c0,0,6.4,3.5,10.6,6.1c0,0,4.5,2.2,8.7-0.6L129.4,263.6z"/>
<path class="st0" d="M67.9,247.9c0,0,25.9-8.7,44,5.1c18.2,13.7-7.8,2.5-7.8,2.5L67.9,247.9z"/>
<path class="st0" d="M55.2,250.5c0,0,24.4-12.2,44.3-1.2c19.9,11-7.4,3.6-7.4,3.6L55.2,250.5z"/>
<path class="st0" d="M446.8,246.8H473c0,0,24.2-1.2,37.2,15.5c0,0,14.4,16.1,6,39.5c0,0-4.3,18-27.3,26c-0.7,0.3-1.3,1-1.3,1.7l0,0
	c0,0,5.9,1.3,15.4,18.5l27.7,41.2l-23.1-0.2c-4.6,0.2-9-2.4-10.9-6.6c-0.1-0.3-0.3-0.7-0.4-1l-29.6-44.2c0,0-3-4.2-6.4-3.6
	c-0.6,0.1-1.2,0.1-1.8,0.1l-11.8-0.1v-19.4l21.5-0.2c3.3,0,6.6-0.8,9.6-2.2c0.1,0,0.2-0.1,0.2-0.1c10.6-5.1,16.9-18.9,13.4-30.2
	c-0.8-2.7-2.2-5.2-4.4-6.9c-0.8-0.6-1.6-1.1-2.4-1.8c-1.9-1.5-6.3-4.3-13.4-4.9l-24.6-0.1V246.8z"/>
<rect x="444.8" y="314.2" class="st0" width="13.1" height="19.6"/>
<rect x="442.4" y="325.8" class="st0" width="25.7" height="7.9"/>
<line class="st1" x1="18.9" y1="397.8" x2="18.9" y2="423.8"/>
<line class="st1" x1="37.3" y1="397.8" x2="37.3" y2="423.8"/>
<line class="st1" x1="18.9" y1="410.3" x2="37.3" y2="410.3"/>
<line class="st2" x1="102.6" y1="423.4" x2="112.9" y2="398.5"/>
<line class="st2" x1="123.5" y1="423.4" x2="113.1" y2="398.5"/>
<line class="st1" x1="106.3" y1="414.7" x2="119.9" y2="414.7"/>
<path class="st3" d="M207.6,401.1c0,0-5.6-5.4-12.7-2.7c-3.1,1.2-5.5,3.7-6.7,6.8"/>
<line class="st1" x1="355.3" y1="398" x2="355.3" y2="422.9"/>
<line class="st1" x1="273" y1="397.9" x2="273" y2="422.8"/>
<line class="st1" x1="289.4" y1="397.9" x2="277" y2="410.3"/>
<line class="st1" x1="289.5" y1="422.8" x2="277" y2="410.3"/>
<line class="st1" x1="273" y1="410.3" x2="277" y2="410.3"/>
<line class="st1" x1="423.8" y1="397.9" x2="423.8" y2="422.9"/>
<line class="st1" x1="442.1" y1="397.9" x2="442.1" y2="422.9"/>
<line class="st1" x1="423.8" y1="397.9" x2="442.1" y2="422.9"/>
<line class="st4" x1="525" y1="412.3" x2="530.1" y2="412.3"/>
<line class="st1" x1="696.9" y1="397.8" x2="716.1" y2="397.8"/>
<line class="st1" x1="706.5" y1="422.8" x2="706.5" y2="397.8"/>
<line class="st1" x1="798.6" y1="397.8" x2="784.3" y2="397.8"/>
<line class="st1" x1="784.3" y1="421.8" x2="784.3" y2="397.3"/>
<line class="st1" x1="784.3" y1="423" x2="784.3" y2="421.1"/>
<line class="st1" x1="798.7" y1="423" x2="783.8" y2="423"/>
<line class="st1" x1="796.8" y1="410.3" x2="784.3" y2="410.3"/>
<line class="st1" x1="876.2" y1="398.1" x2="865.9" y2="422.8"/>
<line class="st1" x1="869.5" y1="414.1" x2="883.2" y2="414.1"/>
<line class="st1" x1="876.5" y1="398.1" x2="886.8" y2="422.7"/>
<line class="st1" x1="955.9" y1="398.3" x2="955.8" y2="422.9"/>
<line class="st1" x1="980.3" y1="398.3" x2="980.3" y2="422.9"/>
<line class="st2" x1="968" y1="418.3" x2="955.9" y2="398.3"/>
<line class="st2" x1="968.2" y1="418.3" x2="980.3" y2="398.3"/>
<path class="st0" d="M612.7,296.6c0,0,8.3-2,9.9,4.3c0.1,0.2,0.1,0.5,0.1,0.7c0,1.3,0.5,5.9,5.9,7.7c0,0-3.5,3.5-8.4-0.1
	c-1.2-0.9-2-2.1-2.4-3.5C617.2,304,615.9,300.8,612.7,296.6z"/>
<path id="SVGID_x5F_1_x5F_" class="st0" d="M545.7,291.1c2.9-1.9,4.2-0.6,4.2-0.6c-8.9,6.2-5.3,22.3-5.3,22.3
	c21.4-20.2,39.9-10.1,39.9-10.1c-23.3,1.5-33,18.5-33,18.5c10.1-5,18.9-2.7,18.9-2.7c-20.4,5.9-23.3,21.2-23.3,21.2H559
	c-4.2,34.5,47.9,72.5,47.9,72.5c10.3-1.5,51.1-43.9,51.1-43.9c-2.3,23.1-50.2,53.8-50.2,53.8c-29.4-9.7-54.2-50.4-54.2-50.4v8
	c-8.2-10.5-7.4-25.4-7.4-25.4c-4-3.2-4.9,12.8-4.9,12.8c-5.8-2.7-6.6-25.8-6.6-25.8c-2.7-5.8-8,10.3-8,10.3
	c-5.3-19.5,6.9-34.5,6.9-34.5c-2.3-1.5-14.3,13.2-14.3,13.2c-0.8-12.4,1.3-17.4,1.3-17.4c1.1-5.9,11.4-17.9,11.4-17.9
	c-4-1.7-12.6,8.8-12.6,8.8c9.2-30.8,44.1-41.3,44.1-41.3C547.4,278.1,545.7,291.1,545.7,291.1z"/>
<text><textPath  xlink:href="#SVGID_x5F_1_x5F_" startOffset="36.6977%">
</textPath>
</text>
<path class="st0" d="M516.9,240c0,0,87.4-32.8,173.2,8.4c0,0,7.1,28.2-18.9,87.4c0,0,13.1-60.6,7.1-77.8
	C678.3,258.1,628.7,224.4,516.9,240z"/>
<path class="st0" d="M553.5,333.1c0,0,20.2-25.2,57.1-1.6c0,0,25.5,18,37.2,14.2c0,0,9.5-1.6,6.3-13.9c0,0,11-0.9,15.4,5
	c0,0-13.2,20.8-39.7,17.3c0,0-14.2-0.6-30-11.4c0,0-14.8-9.8-26.8-1.9c0,0-4.7,4.7-6.9,18.6c0,0-8.2-12.5,2.8-24.4
	C569,335.2,562.3,329.5,553.5,333.1"/>
<path class="st0" d="M647.8,322.7c-5.7-5.2-16.3-19.2-19.6-23.2c-0.6-0.7-1.1-1.4-1.6-2.2c-3-4.7-14.2-19.4-24.2,1.5
	c0,0-10.1-8-19.9-7.7c0,0,6.6,6.3,6.1,7.9c0,0-23.8-8.7-41.4,6.6c0,0,10.6-15.4,11.7-21.4c0.3-1.5-0.6-4.7-5.4-2.5
	c0,0,25.2-33.1,53.3-41.9c0,0-3.8,16.7,0,21c0,0,6.9-9.3,16.7-8.7c0,0-9.5,13.9-6.3,24.9c0,0,15,3.2,21.2,20.5
	c0.8,2.2,1.3,4.5,1.6,6.9"/>
<path class="st5" d="M647.8,322.7"/>
<path d="M596.1,254c0,0-9.8,0.6-18,16.7l19.5-1.9L596.1,254z"/>
<path class="st3" d="M207.4,420.2c-5,5.3-12,2.5-12,2.5"/>
<path class="st6" d="M188.9,417.9c-1.6-3.6-2-6.6-1.7-9.1c0.5-4.4,2.9-6.7,2.9-6.7"/>
<path class="st3" d="M187.3,412.1c0,0,0.4,7.7,7.5,10.6c3.1,1.2,6.6,1,9.5-0.4"/>
<path class="st3" d="M530.1,420.1v-7.8"/>
<path class="st6" d="M515.8,398.9"/>
<path class="st6" d="M530.1,400.8"/>
<path class="st7" d="M529.3,400.4c0,0-5.6-4.3-12.7-1.6c-3.1,1.2-5.5,3.7-6.7,6.8"/>
<path class="st3" d="M530.1,420.1c-5,5.3-12,2.5-12,2.5"/>
<path class="st3" d="M512.6,401.4c0,0-2.9,2.8-3.4,7.1c-0.2,1.9-0.1,4.2,0.8,6.8c0.6,1.9,1.8,3.7,3.5,4.9c1.2,0.9,2.8,1.8,4.9,2.4"
	/>
<rect x="436.1" y="246.8" class="st0" width="27.6" height="21.3"/>
</svg>
